<svg width="60.000000" height="46.848511" viewBox="0 0 60 46.8485" fill="none" xmlns="http://www.w3.org/2000/svg" xmlns:xlink="http://www.w3.org/1999/xlink">
	<desc>
			Created with Pixso.
	</desc>
	<defs/>
	<path d="M38.45 41.33L5.57 41.33C3.47 41.33 1.75 39.62 1.75 37.51L1.75 11.21C1.75 9.1 3.47 7.39 5.57 7.39C6.06 7.39 6.45 7 6.45 6.51C6.45 6.02 6.06 5.63 5.57 5.63C2.5 5.63 0 8.13 0 11.21L0 37.51C0 40.58 2.5 43.09 5.57 43.09L38.45 43.09C38.93 43.09 39.33 42.69 39.33 42.21C39.33 41.72 38.93 41.33 38.45 41.33Z" fill="#C5AC2D" fill-opacity="1.000000" fill-rule="nonzero"/>
	<path d="M54.42 5.63L25.3 5.63C24.81 5.63 24.42 6.02 24.42 6.51C24.42 7 24.81 7.39 25.3 7.39L54.42 7.39C56.52 7.39 58.24 9.1 58.24 11.21L58.24 37.51C58.24 39.62 56.52 41.33 54.42 41.33L53.48 41.33C52.99 41.33 52.6 41.72 52.6 42.21C52.6 42.69 52.99 43.09 53.48 43.09L54.42 43.09C57.49 43.09 59.99 40.58 59.99 37.51L59.99 11.21C59.99 8.13 57.49 5.63 54.42 5.63Z" fill="#C5AC2D" fill-opacity="1.000000" fill-rule="nonzero"/>
	<path d="M9.33 7.39C11.95 7.39 14.09 9.52 14.09 12.15C14.09 12.63 14.48 13.03 14.97 13.03C15.45 13.03 15.84 12.63 15.84 12.15C15.84 9.52 17.98 7.39 20.6 7.39C21.09 7.39 21.48 7 21.48 6.51C21.48 6.02 21.09 5.63 20.6 5.63C17.98 5.63 15.84 3.5 15.84 0.87C15.84 0.39 15.45 0 14.97 0C14.48 0 14.09 0.39 14.09 0.87C14.09 3.5 11.95 5.63 9.33 5.63C8.84 5.63 8.45 6.02 8.45 6.51C8.45 7 8.84 7.39 9.33 7.39ZM14.97 4.14C15.54 5.12 16.35 5.94 17.34 6.51C16.35 7.08 15.54 7.9 14.97 8.88C14.39 7.9 13.58 7.08 12.59 6.51C13.57 5.94 14.39 5.12 14.97 4.14Z" fill="#C5AC2D" fill-opacity="1.000000" fill-rule="nonzero"/>
	<path d="M49.72 41.33C48.13 41.33 46.84 40.04 46.84 38.45C46.84 37.96 46.45 37.57 45.96 37.57C45.48 37.57 45.09 37.96 45.09 38.45C45.09 40.04 43.79 41.33 42.21 41.33C41.72 41.33 41.33 41.72 41.33 42.21C41.33 42.69 41.72 43.09 42.21 43.09C43.79 43.09 45.09 44.38 45.09 45.96C45.09 46.45 45.48 46.84 45.96 46.84C46.45 46.84 46.84 46.45 46.84 45.96C46.84 44.38 48.13 43.09 49.72 43.09C50.21 43.09 50.6 42.69 50.6 42.21C50.6 41.72 50.21 41.33 49.72 41.33ZM45.96 43.25C45.67 42.85 45.32 42.5 44.92 42.21C45.32 41.92 45.67 41.56 45.96 41.16C46.25 41.56 46.61 41.92 47.01 42.21C46.61 42.5 46.25 42.85 45.96 43.25Z" fill="#C5AC2D" fill-opacity="1.000000" fill-rule="nonzero"/>
	<path d="M13.27 15.96C12.79 15.96 12.39 16.36 12.39 16.84L12.39 31.86C12.39 32.29 12.7 32.65 13.12 32.73C13.18 32.74 13.27 32.75 14.9 32.75C15.69 32.75 16.85 32.75 18.54 32.74C19.02 32.74 19.42 32.34 19.41 31.86C19.41 31.37 19.02 30.98 18.53 30.98C18.53 30.98 18.53 30.98 18.53 30.98C17.2 30.99 15.24 31 14.15 30.99L14.15 16.84C14.15 16.36 13.76 15.96 13.27 15.96Z" fill="#C5AC2D" fill-opacity="1.000000" fill-rule="nonzero"/>
	<path d="M37.28 32.59C37.44 32.7 37.61 32.75 37.79 32.75C38.06 32.75 38.33 32.62 38.51 32.38L43.46 25.35L48.4 32.38C48.57 32.62 48.84 32.75 49.12 32.75C49.3 32.75 49.47 32.7 49.63 32.59C50.02 32.31 50.12 31.77 49.84 31.37L44.53 23.83L49.09 17.35C49.37 16.95 49.28 16.4 48.88 16.12C48.49 15.85 47.94 15.94 47.66 16.34L43.46 22.3L39.27 16.34C38.99 15.94 38.44 15.85 38.04 16.12C37.64 16.4 37.55 16.95 37.83 17.35L42.38 23.82L37.07 31.37C36.79 31.76 36.88 32.31 37.28 32.59Z" fill="#C5AC2D" fill-opacity="1.000000" fill-rule="nonzero"/>
	<path d="M24.74 31.82C25.7 32.44 26.79 32.75 27.98 32.75L27.99 32.75C29.02 32.75 29.99 32.53 30.86 32.09C33.03 31 34.18 29.3 34.18 27.18L34.18 16.84C34.18 16.36 33.78 15.96 33.3 15.96C32.81 15.96 32.42 16.36 32.42 16.84L32.42 27.18C32.42 28.63 31.65 29.72 30.07 30.52C29.44 30.84 28.74 31 27.99 30.99C27.99 30.99 27.98 30.99 27.98 30.99C27.13 30.99 26.36 30.77 25.68 30.34C24.32 29.47 23.73 28.52 23.73 27.19L23.73 16.84C23.73 16.36 23.34 15.96 22.85 15.96C22.37 15.96 21.97 16.36 21.97 16.84L21.97 27.19C21.97 29.12 22.88 30.63 24.74 31.82Z" fill="#C5AC2D" fill-opacity="1.000000" fill-rule="nonzero"/>
</svg>
